<?xml version="1.0" encoding="UTF-8" standalone="no"?>
<svg width="32px" height="39px" viewBox="0 0 32 39" version="1.1" xmlns="http://www.w3.org/2000/svg" xmlns:xlink="http://www.w3.org/1999/xlink">
    <!-- Generator: sketchtool 3.8.3 (29802) - http://www.bohemiancoding.com/sketch -->
    <title>Group 59 Copy 15</title>
    <desc>Created with sketchtool.</desc>
    <defs></defs>
    <g id="Welcome" stroke="none" stroke-width="1" fill="none" fill-rule="evenodd">
        <g id="1-Ads-on" transform="translate(-214.000000, -130.000000)">
            <g id="Group-86-Copy-2" transform="translate(200.000000, 111.000000)">
                <g id="Group-82-Copy-15" transform="translate(14.000000, 19.000000)">
                    <g id="Group-59-Copy-15">
                        <polygon id="Combined-Shape" fill="#E0E0E0" points="24 20 8 20 8 38.5 16 34 24 38.5"></polygon>
                        <polygon id="Star-1" fill="#068FFC" points="16 29.1199999 11.8588953 31.4548132 9.44000006 27.3622532 4.6862915 27.3137085 4.6377468 22.5599999 0.545186779 20.1411047 2.88000011 16 0.545186779 11.8588953 4.6377468 9.44000006 4.6862915 4.6862915 9.44000006 4.6377468 11.8588953 0.545186779 16 2.88000011 20.1411047 0.545186779 22.5599999 4.6377468 27.3137085 4.6862915 27.3622532 9.44000006 31.4548132 11.8588953 29.1199999 16 31.4548132 20.1411047 27.3622532 22.5599999 27.3137085 27.3137085 22.5599999 27.3622532 20.1411047 31.4548132"></polygon>
                        <text id="A" font-family="PTSans-Bold, PT Sans" font-size="20" font-weight="bold" fill="#FFFFFF">
                            <tspan x="10.45" y="23">A</tspan>
                        </text>
                    </g>
                </g>
            </g>
        </g>
    </g>
</svg>