<?xml version="1.0" encoding="UTF-8" standalone="no"?>
<svg width="24px" height="24px" viewBox="0 0 24 24" version="1.1" xmlns="http://www.w3.org/2000/svg" xmlns:xlink="http://www.w3.org/1999/xlink">
    <!-- Generator: sketchtool 3.8.3 (29802) - http://www.bohemiancoding.com/sketch -->
    <title>Group 65 Copy 2</title>
    <desc>Created with sketchtool.</desc>
    <defs></defs>
    <g id="Welcome" stroke="none" stroke-width="1" fill="none" fill-rule="evenodd">
        <g id="3-Advanced-mode" transform="translate(-376.000000, -395.000000)">
            <g id="Group-85-Copy-3" transform="translate(200.000000, 111.000000)">
                <g id="Group-88">
                    <g id="Group-81-Copy-14" transform="translate(18.000000, 281.000000)">
                        <g id="Group-69-Copy-8" transform="translate(158.000000, 0.000000)">
                            <g id="Group-65-Copy-2" transform="translate(0.000000, 3.000000)">
                                <rect id="Rectangle-374-Copy" opacity="0.13671875" x="0" y="0" width="24" height="24"></rect>
                                <path d="M8,14.0025 C6.34,14.0025 5,15.3425 5,17.0025 C5,18.3125 3.84,19.0025 3,19.0025 C3.92,20.2225 5.49,21.0025 7,21.0025 C9.21,21.0025 11,19.2125 11,17.0025 C11,15.3425 9.66,14.0025 8,14.0025 L8,14.0025 Z M19.37,4.2925 C18.98,3.9025 18.35,3.9025 17.96,4.2925 L10,12.2525 L12.75,15.0025 L20.71,7.0425 C21.1,6.6525 21.1,6.0225 20.71,5.6325 L19.37,4.2925 Z" id="Shape" fill="#909096"></path>
                                <g id="Group-67" transform="translate(12.000000, 12.000000) rotate(45.000000) translate(-12.000000, -12.000000) translate(-2.000000, 10.000000)">
                                    <rect id="Rectangle-426" fill="#068FFC" x="1.49347201e-12" y="-1.62514446e-12" width="28" height="2"></rect>
                                    <rect id="Rectangle-426-Copy" fill="#FFFFFF" x="1.49347201e-12" y="2" width="28" height="2"></rect>
                                </g>
                            </g>
                        </g>
                    </g>
                </g>
            </g>
        </g>
    </g>
</svg>