<?xml version="1.0" encoding="UTF-8" standalone="no"?>
<svg width="18px" height="18px" viewBox="0 0 18 18" version="1.1" xmlns="http://www.w3.org/2000/svg" xmlns:xlink="http://www.w3.org/1999/xlink">
    <!-- Generator: Sketch 3.8.3 (29802) - http://www.bohemiancoding.com/sketch -->
    <title>Group 83 Copy 9</title>
    <desc>Created with Sketch.</desc>
    <defs></defs>
    <g id="Welcome" stroke="none" stroke-width="1" fill="none" fill-rule="evenodd">
        <g id="1-Ads-on" transform="translate(-469.000000, -129.000000)">
            <g id="Group-86-Copy-2" transform="translate(200.000000, 111.000000)">
                <g id="Group-83-Copy-9" transform="translate(266.000000, 15.000000)">
                    <polygon id="Shape" points="0 0 24 0 24 24 0 24"></polygon>
                    <g id="Group-81" transform="translate(3.000000, 3.000000)" fill="#909096">
                        <path d="M9,12 C7.34571429,12 6,10.6542857 6,9 C6,7.34571429 7.34571429,6 9,6 C10.6542857,6 12,7.34571429 12,9 C12,10.6542857 10.6542857,12 9,12 L9,12 Z" id="Shape-Copy-3"></path>
                        <path d="M15.6705888,9.90330115 C15.7129082,9.56474655 15.7341797,9.288217 15.7341797,9 C15.7341797,8.711783 15.7129082,8.43525345 15.6705888,8.09669885 L14.8587251,8.19818182 L15.3627302,8.84269742 L17.0890938,7.49269742 C17.5649938,7.11699811 17.6880884,6.45807994 17.4015488,5.93275735 L15.7552632,3.0841819 C15.4709466,2.56241094 14.8250608,2.34222259 14.2682081,2.54471447 L12.2056271,3.37257674 L12.5105433,4.13181818 L13.0093976,3.48330765 C12.5185754,3.10575214 11.9965034,2.80179022 11.4380897,2.57293216 L11.127816,3.33 L11.9377135,3.21386376 L11.6268044,1.04568195 C11.5523989,0.449361046 11.0281443,0 10.4159979,0 L7.14327058,0 C6.53112409,0 6.00686954,0.449361046 5.93049777,1.06033522 L5.62155496,3.21386376 L6.4314524,3.33 L6.12117869,2.57293216 C5.58028016,2.79461188 5.06484799,3.09699876 4.55781603,3.47727273 L5.04872512,4.13181818 L5.35364137,3.37257674 L3.31636864,2.55439492 C2.73853825,2.32825256 2.08999553,2.55934249 1.79408329,3.10184826 L0.167641632,5.91509099 C-0.142995933,6.44071128 -0.00987253666,7.11372401 0.467197978,7.49035863 L2.19653822,8.84269742 L2.7005433,8.19818182 L1.88867959,8.09669885 C1.84702783,8.42991287 1.82508876,8.71731476 1.82508876,9 C1.82508876,9.28268524 1.84702783,9.57008713 1.88867959,9.90330115 L2.7005433,9.80181818 L2.19653822,9.15730258 L0.470174579,10.5073026 C-0.00572534154,10.8830019 -0.128819944,11.5419201 0.157719654,12.0672427 L1.80400527,14.9158181 C2.08832183,15.4375891 2.73420767,15.6577774 3.29106036,15.4552855 L5.35364137,14.6274233 L5.04872512,13.8681818 L4.54987086,14.5166924 C5.04069302,14.8942479 5.56276502,15.1982098 6.12117869,15.4270678 L6.4314524,14.67 L5.62155496,14.7861362 L5.93246405,16.9543181 C6.00686954,17.550639 6.53112409,18 7.14327058,18 L10.4159979,18 C11.0281443,18 11.5523989,17.550639 11.6287707,16.9396648 L11.9377135,14.7861362 L11.127816,14.67 L11.4380897,15.4270678 C11.9789883,15.2053881 12.4944204,14.9030012 13.0014524,14.5227273 L12.5105433,13.8681818 L12.2056271,14.6274233 L14.2428998,15.4456051 C14.8207302,15.6717474 15.4692729,15.4406575 15.7651851,14.8981517 L17.3916268,12.084909 C17.6880884,11.5419201 17.5649938,10.8830019 17.0920704,10.5096414 L15.3627302,9.15730258 L14.8587251,9.80181818 L15.6705888,9.90330115 L15.6705888,9.90330115 L15.6705888,9.90330115 Z M14.0468614,9.70033522 L13.9893282,10.1606008 L14.35472,10.4463338 L16.0810837,11.7963338 C15.915671,11.665756 15.8750843,11.4484979 15.9649924,11.2836664 L14.3385507,14.0969092 C14.4296418,13.9293849 14.6541587,13.8493847 14.845961,13.9244377 L12.8154595,13.1089404 L12.38808,12.937302 L12.0196342,13.2136364 C11.6183174,13.514624 11.2217702,13.747265 10.8175423,13.9129322 L10.3843686,14.0904624 L10.3179186,14.5538638 L10.0070095,16.7220456 C10.0323241,16.518452 10.2129423,16.3636364 10.4159979,16.3636364 L7.14327058,16.3636364 C7.34632615,16.3636364 7.52694434,16.518452 7.5542252,16.7366989 L7.24134983,14.5538638 L7.17489982,14.0904624 L6.7417261,13.9129322 C6.32073187,13.7403935 5.92497228,13.5099735 5.54757938,13.2196713 L5.17730561,12.9348453 L4.74380888,13.1089404 L2.70653615,13.9271222 C2.91470885,13.8509456 3.12616118,13.9230316 3.23063968,14.1145755 L1.58435407,11.2660001 C1.68418412,11.4484979 1.64359744,11.665756 1.48116136,11.793995 L3.20454839,10.4463338 L3.56994022,10.1606008 L3.51240702,9.70033522 C3.47849728,9.42905726 3.4614524,9.20576931 3.4614524,9 C3.4614524,8.79423069 3.47849728,8.57094274 3.51240702,8.29966478 L3.56994022,7.83939917 L3.20454839,7.55366622 L1.47818476,6.20366622 C1.64092986,6.33213804 1.68630604,6.56153985 1.58039228,6.74077853 L3.2207177,3.90309082 C3.12962663,4.07061506 2.90510974,4.15061533 2.71330747,4.07556227 L4.74380888,4.89105963 L5.17118841,5.06269799 L5.53963421,4.78636364 C5.94095105,4.48537601 6.33749821,4.25273501 6.7417261,4.08706784 L7.17489982,3.90953763 L7.24134983,3.44613624 L7.55225893,1.27795442 C7.52694434,1.48154804 7.34632615,1.63636364 7.14327058,1.63636364 L10.4159979,1.63636364 C10.2129423,1.63636364 10.0323241,1.48154804 10.0050432,1.26330115 L10.3179186,3.44613624 L10.3843686,3.90953763 L10.8175423,4.08706784 C11.2385366,4.25960646 11.6342961,4.49002649 12.011689,4.78032872 L12.3819628,5.0651547 L12.8154595,4.89105963 L14.8527323,4.07287781 C14.6445596,4.14905441 14.4331072,4.07696838 14.3286287,3.88542447 L15.9749144,6.73399992 C15.8750843,6.5515021 15.915671,6.33424403 16.0781071,6.20600501 L14.35472,7.55366622 L13.9893282,7.83939917 L14.0468614,8.29966478 C14.0814512,8.57638292 14.097816,8.78912609 14.097816,9 C14.097816,9.21087391 14.0814512,9.42361708 14.0468614,9.70033522 L14.0468614,9.70033522 L14.0468614,9.70033522 Z" id="Shape-Copy-2"></path>
                    </g>
                </g>
            </g>
        </g>
    </g>
</svg>