<?xml version="1.0" encoding="UTF-8" standalone="no"?>
<svg width="12px" height="12px" viewBox="0 0 12 12" version="1.1" xmlns="http://www.w3.org/2000/svg" xmlns:xlink="http://www.w3.org/1999/xlink">
    <!-- Generator: sketchtool 3.8.3 (29802) - http://www.bohemiancoding.com/sketch -->
    <title>Group 83 Copy 11</title>
    <desc>Created with sketchtool.</desc>
    <defs></defs>
    <g id="Welcome" stroke="none" stroke-width="1" fill="none" fill-rule="evenodd" opacity="0.5">
        <g id="3-Advanced-mode" transform="translate(-478.000000, -125.000000)">
            <g id="Group-113" transform="translate(260.000000, 111.000000)">
                <g id="Group-96-Copy-17">
                    <g id="Group-96-Copy-15">
                        <g id="Group-83-Copy-11" transform="translate(216.000000, 12.000000)">
                            <polygon id="Shape" points="0 0 16 0 16 16 0 16"></polygon>
                            <g id="Group-81" transform="translate(2.000000, 2.000000)" fill="#FFFFFF">
                                <path d="M6,8 C4.89714286,8 4,7.10285714 4,6 C4,4.89714286 4.89714286,4 6,4 C7.10285714,4 8,4.89714286 8,6 C8,7.10285714 7.10285714,8 6,8 L6,8 Z" id="Shape-Copy-3"></path>
                                <path d="M10.4470592,6.60220076 C10.4752721,6.3764977 10.4894531,6.19214467 10.4894531,6 C10.4894531,5.80785533 10.4752721,5.6235023 10.4470592,5.39779924 L9.90581675,5.46545455 L10.2418201,5.89513161 L11.3927292,4.99513161 C11.7099958,4.74466541 11.7920589,4.30538663 11.6010325,3.95517157 L10.5035088,2.05612127 C10.3139644,1.70827396 9.88337384,1.56148172 9.51213871,1.69647631 L8.13708471,2.24838449 L8.3403622,2.75454545 L8.67293171,2.3222051 C8.34571694,2.07050143 7.99766894,1.86786015 7.62539316,1.71528811 L7.41854402,2.22 L7.95847565,2.14257584 L7.75120292,0.697121297 C7.70159926,0.299574031 7.35209622,0 6.94399857,0 L4.76218038,0 C4.35408273,0 4.00457969,0.299574031 3.95366518,0.706890145 L3.7477033,2.14257584 L4.28763493,2.22 L4.08078579,1.71528811 C3.72018678,1.86307459 3.37656533,2.06466584 3.03854402,2.31818182 L3.36581675,2.75454545 L3.56909424,2.24838449 L2.21091243,1.70292995 C1.82569216,1.55216837 1.39333035,1.70622833 1.19605553,2.06789884 L0.111761088,3.943394 C-0.0953306221,4.29380752 -0.00658169111,4.74248267 0.311465318,4.99357242 L1.46435881,5.89513161 L1.8003622,5.46545455 L1.25911972,5.39779924 C1.23135189,5.61994192 1.21672584,5.81154318 1.21672584,6 C1.21672584,6.18845682 1.23135189,6.38005808 1.25911972,6.60220076 L1.8003622,6.53454545 L1.46435881,6.10486839 L0.313449719,7.00486839 C-0.00381689436,7.25533459 -0.0858799628,7.69461337 0.105146436,8.04482843 L1.20267018,9.94387873 C1.39221455,10.291726 1.82280511,10.4385183 2.19404024,10.3035237 L3.56909424,9.75161551 L3.36581675,9.24545455 L3.03324724,9.6777949 C3.36046201,9.92949857 3.70851001,10.1321399 4.08078579,10.2847119 L4.28763493,9.78 L3.7477033,9.85742416 L3.95497603,11.3028787 C4.00457969,11.700426 4.35408273,12 4.76218038,12 L6.94399857,12 C7.35209622,12 7.70159926,11.700426 7.75251377,11.2931099 L7.95847565,9.85742416 L7.41854402,9.78 L7.62539316,10.2847119 C7.98599218,10.1369254 8.32961362,9.93533416 8.66763493,9.68181818 L8.3403622,9.24545455 L8.13708471,9.75161551 L9.49526653,10.2970701 C9.88048679,10.4478316 10.3128486,10.2937717 10.5101234,9.93210116 L11.5944179,8.056606 C11.7920589,7.69461337 11.7099958,7.25533459 11.3947136,7.00642758 L10.2418201,6.10486839 L9.90581675,6.53454545 L10.4470592,6.60220076 L10.4470592,6.60220076 L10.4470592,6.60220076 Z M9.36457427,6.46689014 L9.3262188,6.77373389 L9.56981336,6.96422252 L10.7207224,7.86422252 C10.6104473,7.77717065 10.5833895,7.63233194 10.6433283,7.52244429 L9.55903382,9.39793945 C9.6197612,9.28625663 9.76943913,9.23292311 9.8973073,9.28295848 L8.5436397,8.73929358 L8.25872001,8.62486801 L8.01308948,8.80909091 C7.74554492,9.00974933 7.48118015,9.16484333 7.21169488,9.27528811 L6.9229124,9.39364158 L6.8786124,9.70257584 L6.67133967,11.1480304 C6.68821606,11.0123013 6.80862818,10.9090909 6.94399857,10.9090909 L4.76218038,10.9090909 C4.89755077,10.9090909 5.01796289,11.0123013 5.03615014,11.1577992 L4.82756656,9.70257584 L4.78326655,9.39364158 L4.49448407,9.27528811 C4.21382125,9.16026236 3.94998152,9.00664901 3.69838625,8.81311419 L3.45153707,8.6232302 L3.16253925,8.73929358 L1.80435743,9.28474813 C1.94313923,9.23396373 2.08410746,9.28202108 2.15375979,9.40971702 L1.05623605,7.51066672 C1.12278941,7.63233194 1.09573163,7.77717065 0.987440906,7.86266333 L2.1363656,6.96422252 L2.37996015,6.77373389 L2.34160468,6.46689014 C2.31899818,6.28603817 2.30763493,6.13717954 2.30763493,6 C2.30763493,5.86282046 2.31899818,5.71396183 2.34160468,5.53310986 L2.37996015,5.22626611 L2.1363656,5.03577748 L0.985456505,4.13577748 C1.09395324,4.22142536 1.12420403,4.3743599 1.05359485,4.49385235 L2.14714514,2.60206055 C2.08641776,2.71374337 1.93673983,2.76707689 1.80887165,2.71704152 L3.16253925,3.26070642 L3.44745894,3.37513199 L3.69308948,3.19090909 C3.96063403,2.99025067 4.22499881,2.83515667 4.49448407,2.72471189 L4.78326655,2.60635842 L4.82756656,2.29742416 L5.03483928,0.851969612 C5.01796289,0.987698697 4.89755077,1.09090909 4.76218038,1.09090909 L6.94399857,1.09090909 C6.80862818,1.09090909 6.68821606,0.987698697 6.67002882,0.842200764 L6.8786124,2.29742416 L6.9229124,2.60635842 L7.21169488,2.72471189 C7.4923577,2.83973764 7.75619743,2.99335099 8.0077927,3.18688581 L8.25464188,3.3767698 L8.5436397,3.26070642 L9.90182152,2.71525187 C9.76303972,2.76603627 9.6220715,2.71797892 9.55241916,2.59028298 L10.6499429,4.48933328 C10.5833895,4.36766806 10.6104473,4.22282935 10.718738,4.13733667 L9.56981336,5.03577748 L9.3262188,5.22626611 L9.36457427,5.53310986 C9.38763411,5.71758861 9.39854402,5.8594174 9.39854402,6 C9.39854402,6.1405826 9.38763411,6.28241139 9.36457427,6.46689014 L9.36457427,6.46689014 L9.36457427,6.46689014 Z" id="Shape-Copy-2"></path>
                            </g>
                        </g>
                    </g>
                </g>
            </g>
        </g>
    </g>
</svg>