<?xml version="1.0" encoding="UTF-8" standalone="no"?>
<svg width="24px" height="24px" viewBox="0 0 24 24" version="1.1" xmlns="http://www.w3.org/2000/svg" xmlns:xlink="http://www.w3.org/1999/xlink">
    <!-- Generator: sketchtool 3.8.3 (29802) - http://www.bohemiancoding.com/sketch -->
    <title>Group 65 Copy 3</title>
    <desc>Created with sketchtool.</desc>
    <defs></defs>
    <g id="Welcome" stroke="none" stroke-width="1" fill="none" fill-rule="evenodd">
        <g id="3-Advanced-mode" transform="translate(-455.000000, -395.000000)">
            <g id="Group-85-Copy-3" transform="translate(200.000000, 111.000000)">
                <g id="Group-88">
                    <g id="Group-81-Copy-14" transform="translate(18.000000, 281.000000)">
                        <g id="Group-68-Copy-12" transform="translate(237.000000, 0.000000)">
                            <g id="Group-65-Copy-3" transform="translate(0.000000, 3.000000)">
                                <rect id="Rectangle-374-Copy" opacity="0.13671875" x="0" y="0" width="24" height="24"></rect>
                                <path d="M10.19725,18.353 C10.5835853,18.353 11.010581,18.2360845 11.47825,18.00225 C11.945919,17.7684155 12.4084977,17.4685018 12.866,17.1025 C13.3235023,16.7364982 13.750498,16.3247523 14.147,15.86725 C14.543502,15.4097477 14.8739153,14.9573356 15.13825,14.51 L16.75475,6.214 C16.5514157,5.94966534 16.251502,5.73616748 15.855,5.5735 C15.458498,5.41083252 15.0060859,5.3295 14.49775,5.3295 C13.4607448,5.3295 12.545754,5.6192471 11.75275,6.19875 C10.959746,6.7782529 10.2887527,7.53566199 9.73975,8.471 C9.19074726,9.40633801 8.77391809,10.4484109 8.48925,11.59725 C8.20458191,12.7460891 8.06225,13.8796611 8.06225,14.998 C8.06225,17.2346778 8.77390955,18.353 10.19725,18.353 L10.19725,18.353 Z M14.77225,16.4315 C14.5689157,16.7771684 14.2842518,17.1736644 13.91825,17.621 C13.5522482,18.0683356 13.1100026,18.490248 12.5915,18.88675 C12.0729974,19.283252 11.4884199,19.6187486 10.83775,19.89325 C10.1870801,20.1677514 9.4855871,20.305 8.73325,20.305 C7.57424421,20.305 6.64400351,19.908504 5.9425,19.1155 C5.24099649,18.322496 4.89025,17.1330079 4.89025,15.547 C4.89025,14.0423258 5.10374787,12.5783404 5.53075,11.155 C5.95775214,9.73165955 6.5779126,8.46592221 7.39125,7.35775 C8.2045874,6.24957779 9.20599405,5.36000335 10.3955,4.689 C11.5850059,4.01799664 12.9524089,3.6825 14.49775,3.6825 C15.0670862,3.6825 15.6109974,3.78924893 16.1295,4.00275 C16.6480026,4.21625107 17.0190822,4.45516534 17.24275,4.7195 L17.73075,3.9875 L20.07925,3.9875 L17.21225,18.353 L19.71325,18.353 L19.71325,20 L14.31475,20 L14.95525,16.4315 L14.77225,16.4315 Z" id="a" fill="#909096"></path>
                                <g id="Group-67" transform="translate(12.000000, 12.000000) rotate(45.000000) translate(-12.000000, -12.000000) translate(-2.000000, 10.000000)">
                                    <rect id="Rectangle-426" fill="#068FFC" x="1.49347201e-12" y="-1.62514446e-12" width="28" height="2"></rect>
                                    <rect id="Rectangle-426-Copy" fill="#FFFFFF" x="1.49347201e-12" y="2" width="28" height="2"></rect>
                                </g>
                            </g>
                        </g>
                    </g>
                </g>
            </g>
        </g>
    </g>
</svg>