<?xml version="1.0" encoding="UTF-8" standalone="no"?>
<svg width="14px" height="18px" viewBox="0 0 14 18" version="1.1" xmlns="http://www.w3.org/2000/svg" xmlns:xlink="http://www.w3.org/1999/xlink">
    <!-- Generator: sketchtool 3.8.3 (29802) - http://www.bohemiancoding.com/sketch -->
    <title>Group 65</title>
    <desc>Created with sketchtool.</desc>
    <defs></defs>
    <g id="Welcome" stroke="none" stroke-width="1" fill="none" fill-rule="evenodd">
        <g id="1-Ads-on" transform="translate(-302.000000, -398.000000)">
            <g id="Group-86-Copy-2" transform="translate(200.000000, 111.000000)">
                <g id="Group-81-Copy-14" transform="translate(18.000000, 281.000000)">
                    <g id="Group-70-Copy-8" transform="translate(79.000000, 0.000000)">
                        <g id="Group-65" transform="translate(0.000000, 3.000000)">
                            <rect id="Rectangle-374-Copy" opacity="0.13671875" x="0" y="0" width="24" height="24"></rect>
                            <path d="M17.4489506,10.6054255 C18.4190879,11.8068131 19,13.3355669 19,15 C19,17.5463251 17.6404178,19.7751029 15.6075866,21 L8.39241339,21 C6.35958217,19.7751029 5,17.5463251 5,15 C5,13.3358909 5.580686,11.8074082 6.550483,10.606127 L6.00578973,7.9011807 C5.46071365,5.19433334 7.26201604,3 10.0198681,3 L13.9794242,3 C16.7414146,3 18.5380028,5.19719301 17.9935026,7.9011807 L17.4489506,10.6054255 Z M15.7183622,9.06815935 C14.6409942,8.39138923 13.366204,8 12,8 C10.6335304,8 9.35851023,8.39154139 8.2810096,9.06855401 L7.96643308,7.50636723 L7.96643308,7.50636723 C7.67109723,6.03972968 8.52324465,5 10.0198681,5 L13.9794242,5 C15.4771749,5 16.3282135,6.03963811 16.0328593,7.50636723 L15.7183622,9.06815935 Z" id="Combined-Shape" fill="#909096"></path>
                        </g>
                    </g>
                </g>
            </g>
        </g>
    </g>
</svg>