<?xml version="1.0" encoding="UTF-8" standalone="no"?>
<svg width="15px" height="7px" viewBox="0 0 15 7" version="1.1" xmlns="http://www.w3.org/2000/svg" xmlns:xlink="http://www.w3.org/1999/xlink">
    <!-- Generator: sketchtool 3.8.3 (29802) - http://www.bohemiancoding.com/sketch -->
    <title>Combined Shape</title>
    <desc>Created with sketchtool.</desc>
    <defs></defs>
    <g id="Welcome" stroke="none" stroke-width="1" fill="none" fill-rule="evenodd">
        <g id="3-Advanced-mode" transform="translate(-310.000000, -128.000000)" fill="#FFFFFF">
            <g id="Group-113" transform="translate(260.000000, 111.000000)">
                <g id="Group-96-Copy-17">
                    <g id="Group-96-Copy-15">
                        <g id="Group-99" transform="translate(10.000000, 15.000000)">
                            <path d="M54.4829505,4.85561644 L55,3.9948156 L52.2043937,3.9948156 L51.0902327,2 L49.1604666,3.9948156 L45.8395334,3.9948156 L43.9097673,2 L42.7956063,3.9948156 L40.516764,3.9948156 L40,4.85561644 L54.4829505,4.85561644 L54.4829505,4.85561644 Z M40.516764,5.71612223 L40,6.57677555 L54.4829505,6.57677555 L55,5.71612223 L40.516764,5.71612223 L40.516764,5.71612223 Z M40,9 L42.5979487,9 L43.4706392,7.43772392 L40.8726904,7.43772392 L40,9 L40,9 Z M47.5,9 L49.0113314,7.43772392 L45.9886686,7.43772392 L47.5,9 L47.5,9 Z M51.5293608,7.43772392 L52.4020513,9 L55,9 L54.1274523,7.43772392 L51.5293608,7.43772392 L51.5293608,7.43772392 Z" id="Combined-Shape"></path>
                        </g>
                    </g>
                </g>
            </g>
        </g>
    </g>
</svg>