<?xml version="1.0" encoding="UTF-8" standalone="no"?>
<svg width="18px" height="18px" viewBox="0 0 18 18" version="1.1" xmlns="http://www.w3.org/2000/svg" xmlns:xlink="http://www.w3.org/1999/xlink">
    <!-- Generator: sketchtool 3.8.3 (29802) - http://www.bohemiancoding.com/sketch -->
    <title>ic_colorize_black_24px</title>
    <desc>Created with sketchtool.</desc>
    <defs></defs>
    <g id="Welcome" stroke="none" stroke-width="1" fill="none" fill-rule="evenodd">
        <g id="2-Ads-off" transform="translate(-282.000000, -285.000000)">
            <g id="Group-87-Copy" transform="translate(200.000000, 111.000000)">
                <g id="Group-76-Copy-46" transform="translate(79.000000, 171.000000)">
                    <g id="ic_colorize_black_24px">
                        <polygon id="Shape" points="0 0 24 0 24 24 0 24"></polygon>
                        <path d="M20.71,5.63 L18.37,3.29 C17.98,2.9 17.35,2.9 16.96,3.29 L13.84,6.41 L11.91,4.5 L10.5,5.91 L11.92,7.33 L3,16.25 L3,21 L7.75,21 L16.67,12.08 L18.09,13.5 L19.5,12.09 L17.58,10.17 L20.7,7.05 C21.1,6.65 21.1,6.02 20.71,5.63 L20.71,5.63 Z M6.92,19 L5,17.08 L13.06,9.02 L14.98,10.94 L6.92,19 L6.92,19 Z" id="Shape" fill="#909096"></path>
                    </g>
                </g>
            </g>
        </g>
    </g>
</svg>